<?xml version="1.0" encoding="UTF-8" standalone="no"?>
<svg width="78px" height="118px" viewBox="0 0 78 118" version="1.1" xmlns="http://www.w3.org/2000/svg" xmlns:xlink="http://www.w3.org/1999/xlink" xmlns:sketch="http://www.bohemiancoding.com/sketch/ns">
    <title>Slice 1</title>
    <description>Created with Sketch (http://www.bohemiancoding.com/sketch)</description>
    <defs></defs>
    <g id="Page-1" stroke="none" stroke-width="1" fill="none" fill-rule="evenodd" sketch:type="MSPage">
        <path d="M39.004,0.099 C32.389,0.099 19.451,21.927 15.045,43.578 L0.172,58.449 L0.172,97.281 L10.541,97.281 L24.992,82.83 C26.471,84.374 28.101,85.68 29.847,86.708 L48.136,86.708 C49.89,85.683 51.532,84.383 53.015,82.83 L67.466,97.281 L77.827,97.281 L77.827,58.449 L62.961,43.577 C58.555,21.927 45.615,0.099 39.004,0.099 L39.004,0.099 Z M39.02,22.863 C41.321,22.863 45.377,29.337 47.903,37.076 C45.169,36.57 42.255,36.286 39.214,36.286 C36.017,36.286 32.962,36.603 30.107,37.163 C32.629,29.386 36.705,22.863 39.02,22.863 L39.02,22.863 Z M42.791,91.885 L48.406,91.885 C49.047,94.254 49.408,96.9 49.408,99.689 C49.408,109.75 41.607,117.902 39.004,117.902 C36.402,117.897 28.6,109.75 28.6,99.689 C28.6,96.9 28.959,94.254 29.604,91.885 L35.071,91.885 C34.532,93.229 34.21,94.864 34.21,96.635 C34.21,101.193 37.751,104.892 38.933,104.892 C40.111,104.897 43.652,101.193 43.652,96.635 C43.65,94.863 43.332,93.229 42.791,91.885 L42.791,91.885 Z" id="Shape" fill="#000000" sketch:type="MSShapeGroup"></path>
    </g>
</svg>